<svg xmlns="http://www.w3.org/2000/svg" viewBox="0 0 24 24" height="24" width="24"><title>home-15.svg</title><rect fill="none" x="0" y="0" width="24" height="24"></rect><rect x="2" y="2" rx="4" ry="4" width="20" height="20" stroke="#1b2232" style="stroke-linejoin:round;stroke-miterlimit:4;" fill="#1b2232" stroke-width="4"></rect><rect x="2" y="2" width="20" height="20" rx="4" ry="4" fill="#ffb612"></rect><path fill="#1b2232" transform="translate(4 4)" d="M2,13.75a.25.25,0,0,0,.25.25H6V11H9v3h3.75a.25.25,0,0,0,.25-.25V8H2ZM13.932,6.579,13,5.76V2a1,1,0,0,0-2,0V4L7.682,1.09a.25.25,0,0,0-.353-.011l-.011.011L1.068,6.554a.25.25,0,0,0,.179.421L3,7H13.749a.25.25,0,0,0,.183-.421Z"></path></svg>