<svg xmlns="http://www.w3.org/2000/svg" viewBox="0 0 24 24" height="24" width="24"><title>hospital-15.svg</title><rect fill="none" x="0" y="0" width="24" height="24"></rect><rect x="2" y="2" rx="4" ry="4" width="20" height="20" stroke="#1b2232" style="stroke-linejoin:round;stroke-miterlimit:4;" fill="#1b2232" stroke-width="4"></rect><rect x="2" y="2" width="20" height="20" rx="4" ry="4" fill="#ffb612"></rect><path fill="#1b2232" transform="translate(4 4)" d="M7,1C6.4,1,6,1.4,6,2v4H2C1.4,6,1,6.4,1,7v1
	c0,0.6,0.4,1,1,1h4v4c0,0.6,0.4,1,1,1h1c0.6,0,1-0.4,1-1V9h4c0.6,0,1-0.4,1-1V7c0-0.6-0.4-1-1-1H9V2c0-0.6-0.4-1-1-1H7z"></path></svg>